<?xml version="1.0" encoding="UTF-8" standalone="no"?>
<!-- Created with Inkscape (http://www.inkscape.org/) -->

<svg
   xmlns:dc="http://purl.org/dc/elements/1.1/"
   xmlns:cc="http://creativecommons.org/ns#"
   xmlns:rdf="http://www.w3.org/1999/02/22-rdf-syntax-ns#"
   xmlns:svg="http://www.w3.org/2000/svg"
   xmlns="http://www.w3.org/2000/svg"
   xmlns:sodipodi="http://sodipodi.sourceforge.net/DTD/sodipodi-0.dtd"
   xmlns:inkscape="http://www.inkscape.org/namespaces/inkscape"
   width="850"
   height="700"
   viewBox="0 0 224.89584 185.20834"
   version="1.1"
   id="svg8"
   inkscape:version="0.92.3 (2405546, 2018-03-11)"
   sodipodi:docname="banner.svg">
  <defs
     id="defs2" />
  <sodipodi:namedview
     id="base"
     pagecolor="#ffffff"
     bordercolor="#666666"
     borderopacity="1.0"
     inkscape:pageopacity="0.0"
     inkscape:pageshadow="2"
     inkscape:zoom="0.35"
     inkscape:cx="-868.57143"
     inkscape:cy="560"
     inkscape:document-units="px"
     inkscape:current-layer="layer1"
     showgrid="false"
     inkscape:window-width="1853"
     inkscape:window-height="1025"
     inkscape:window-x="67"
     inkscape:window-y="27"
     inkscape:window-maximized="1"
     units="px"
     showguides="true"
     inkscape:guide-bbox="true">
    <sodipodi:guide
       position="0,109.6131"
       orientation="1,0"
       id="guide1139"
       inkscape:locked="false" />
    <sodipodi:guide
       position="226.02977,-63.500002"
       orientation="1,0"
       id="guide1141"
       inkscape:locked="false" />
    <sodipodi:guide
       position="99.785717,-0.75595241"
       orientation="0,1"
       id="guide1143"
       inkscape:locked="false" />
    <sodipodi:guide
       position="201.08334,184.45239"
       orientation="0,1"
       id="guide1145"
       inkscape:locked="false" />
  </sodipodi:namedview>
  <metadata
     id="metadata5">
    <rdf:RDF>
      <cc:Work
         rdf:about="">
        <dc:format>image/svg+xml</dc:format>
        <dc:type
           rdf:resource="http://purl.org/dc/dcmitype/StillImage" />
        <dc:title />
      </cc:Work>
    </rdf:RDF>
  </metadata>
  <g
     inkscape:label="Layer 1"
     inkscape:groupmode="layer"
     id="layer1"
     transform="translate(0,-111.79162)">
    <g
       id="g961"
       transform="matrix(0.26458333,0,0,0.26458333,-73.637322,87.979177)">
      <g
         id="Background">
        <rect
           id="rect817"
           height="980"
           width="1400"
           class="st0"
           x="0"
           y="0"
           style="fill:#f9f7ef" />
        <circle
           id="circle819"
           r="334.79999"
           cy="435.10001"
           cx="679.40002"
           class="st1"
           style="fill:#ffd7c7" />
      </g>
      <g
         id="Object">
        <ellipse
           id="ellipse822"
           ry="44.599998"
           rx="422.5"
           cy="734.29999"
           cx="703.5"
           class="st2"
           style="opacity:0.4;fill:#99afbf" />
        <g
           id="g902">
          <g
             id="g886">
            <path
               id="path824"
               d="m 630,387.3 c 0,0 -8.6,-6.9 -12.3,-2.7 -3.6,4.1 10.9,23.6 18.4,22 7.5,-1.7 -6.1,-19.3 -6.1,-19.3 z"
               class="st3"
               inkscape:connector-curvature="0"
               style="fill:#e5b691" />
            <path
               id="path826"
               d="m 431,489.1 c 0,0 -58.5,-18.9 -78,-54 0,0 -7.5,29.5 0,40.7 7.5,11.2 11.4,10.6 11.4,10.6 0,0 -4.5,2.2 -11.7,2.8 0,0 13.4,17.6 24.2,16.2 l -6.7,5.3 c 0,0 10,12.8 26.7,10.6 16.8,-2.4 34.1,-32.2 34.1,-32.2 z"
               class="st4"
               inkscape:connector-curvature="0"
               style="fill:#dbcfba" />
            <path
               id="path828"
               d="m 848.4,668.5 21.6,-15 133.3,84 c 0,0 5.4,18.8 -2.5,18.8 -7.9,0 -152.4,0 -152.4,0 z"
               class="st5"
               inkscape:connector-curvature="0"
               style="fill:#b76767" />
            <path
               id="path830"
               d="m 1011.5,740.7 -145.7,-90 c -0.6,-0.4 -1.4,-0.3 -1.8,0.3 l -7.5,8.3 c -0.6,0.7 -0.4,1.7 0.3,2.2 l 148.4,91 c 0.7,0.4 1.7,0.2 2.1,-0.5 1.9,-3.3 3.8,-7.2 4.8,-9.1 0.4,-0.8 0.1,-1.7 -0.6,-2.2 z"
               class="st4"
               inkscape:connector-curvature="0"
               style="fill:#dbcfba" />
            <path
               id="path832"
               d="m 776.7,673.4 c -3.5,0.2 -6.4,-2.8 -5.9,-6.4 l 11.3,-81 -90.8,41.2 v 104 c 0,13.8 11.2,24.9 24.9,24.9 h 132.2 v -87.8 z"
               class="st6"
               inkscape:connector-curvature="0"
               style="fill:#3e5862" />
            <path
               id="path834"
               d="m 822,673.4 c -3.5,0.2 -6.4,-2.8 -5.9,-6.4 l 11.3,-81 -90.8,41.2 v 104 c 0,13.8 11.2,24.9 24.9,24.9 h 132.2 v -87.8 z"
               class="st7"
               inkscape:connector-curvature="0"
               style="fill:#267587" />
            <path
               id="path836"
               d="m 893.7,668.5 21.6,-15 133.3,84 c 0,0 5.4,18.8 -2.5,18.8 -7.9,0 -152.4,0 -152.4,0 z"
               class="st5"
               inkscape:connector-curvature="0"
               style="fill:#b76767" />
            <polygon
               id="polygon838"
               points="644.5,411.1 580.6,462.5 612.5,510.2 704.3,446.2 671.4,413.2 "
               class="st8"
               style="fill:#ff8b8b" />
            <path
               id="path840"
               d="m 731.5,368.8 -37,-75.8 -92.7,45.3 37,75.8 c 8.4,17.1 29,24.2 46.1,15.8 l 30.8,-15.1 c 17.1,-8.3 24.2,-28.9 15.8,-46 z"
               class="st3"
               inkscape:connector-curvature="0"
               style="fill:#e5b691" />
            <path
               id="path842"
               d="m 611.5,339.5 c 0,0 34.5,5.8 51.2,1.3 16.7,-4.5 23.9,-8.9 23.9,-8.9 l -15.7,-4.7 34.5,-1.1 12.5,14.7 11.1,22.8 c 0,0 8,-13.9 2.1,-41.9 -5.9,-28 -19.2,-56.8 -19.2,-56.8 0,0 -23.4,-6.3 -49.7,-1.8 -26.3,4.5 -73.2,17.6 -71.3,53 0,0 -6.3,18.6 0.5,32.3 6.8,13.7 36.5,43.3 36.5,43.3 0,0 -21.6,-43.8 -16.4,-52.2 z"
               class="st9"
               inkscape:connector-curvature="0"
               style="fill:#8c3a3a" />
            <path
               id="path844"
               d="m 736.8,353.7 c 0,0 4.4,-19.3 -4.6,-25.5 -8.3,-5.8 -12.5,16.3 -12.5,16.3 l 9.3,19 c 0,0.1 7,-4.5 7.8,-9.8 z"
               class="st3"
               inkscape:connector-curvature="0"
               style="fill:#e5b691" />
            <path
               id="path846"
               d="m 716.4,622.2 69.8,-12.8 38.1,13.1 c 0,0 14.3,-19.8 18.2,-52.1 3.9,-32.3 -54,-152.1 -54,-152.1 l -93,125.6 z"
               class="st10"
               inkscape:connector-curvature="0"
               style="fill:#eaa94e" />
            <path
               id="path848"
               d="m 639.1,609.5 -20.1,48.4 26.7,98.3 h 60.7 c 0,0 4,-18.8 -9.3,-29.7 l -28.8,4.6 -16.3,-62.2 40.9,-42.2 z"
               class="st11"
               inkscape:connector-curvature="0"
               style="fill:#bcaf9b" />
            <path
               id="path850"
               d="M 543.4,567.8 H 425.5 c 4.8,14.2 11.4,34.9 13.8,48.3 3.9,22 -37,73.5 -37,73.5 l 35,66.6 h 62.3 c 2.8,-24.5 -12.3,-29.2 -12.3,-29.2 0,0 -20.6,7.8 -27.9,7.5 -7.2,-0.3 -18.4,-26.3 -18.4,-26.3 l 25.3,-35.5 c 0,0 28.4,-9.5 44.8,-20.3 16.4,-10.9 22.6,-56.1 22.6,-56.1 z"
               class="st11"
               inkscape:connector-curvature="0"
               style="fill:#bcaf9b" />
            <path
               id="path852"
               d="m 796.2,573.8 c -2.5,0.6 -66.9,34 -66.9,34 l -6.1,-29.5 c 0,0 0.6,-31.8 5.6,-58.2 5,-26.5 34.8,-65.7 34.8,-65.7 0,0 9.2,0.3 17.3,-6.4 8.1,-6.7 27.9,-27.6 27.9,-27.6 0,0 3.3,15.3 7.8,13.1 4.5,-2.2 16,-27.7 16,-27.7 0,0 -1.7,11.3 0.8,13.8 2.5,2.5 21.3,-29.2 20.5,-43 -0.8,-13.8 -12.5,-44.7 -12.5,-44.7 l -55.2,16.7 c -10.9,0.6 -17.3,-6.7 -18.9,-7.2 -15.3,-5.5 -61.3,15.3 -63.8,18.1 -2.5,2.8 -11.4,30.9 -13.9,38.7 -2.5,7.8 -39.6,61.6 -59.6,71.9 -20.1,10.3 -127.9,8.9 -127.9,8.9 0,0 -35.9,-2.2 -68.5,3.9 -32.6,6.1 -53.5,69.6 -53.5,69.6 0,0 15.3,41.8 19.2,63.8 2.9,16.2 -18.6,48.4 -30.1,64.3 -4.2,5.8 -4.8,13.5 -1.4,19.9 l 29.4,56 h 62.3 c 2.8,-24.5 -12.3,-29.2 -12.3,-29.2 0,0 -20.6,7.8 -27.9,7.5 -7.2,-0.3 -18.4,-26.3 -18.4,-26.3 L 426.3,673 c 0,0 28.4,-9.5 44.8,-20.3 16.4,-10.9 28.7,-43.2 28.7,-43.2 0,0 23.7,-6.4 44.3,-4.5 20.6,1.9 52.4,19.8 52.4,19.8 l 67.7,-2.5 24.2,42.7 c 3.3,5.9 10.9,7.7 16.5,4.1 l 83.6,-54 c 0,0 -2.7,8.1 3.2,12.3 5.9,4.2 14.2,12.3 14.2,12.3 l -5,13.1 c 0,0 11.1,10.9 20.3,7.5 9.2,-3.4 17.3,-18.7 17.3,-18.7 l -23.4,-58.8 c 0,-0.4 -16.4,-9.5 -18.9,-9 z"
               class="st4"
               inkscape:connector-curvature="0"
               style="fill:#dbcfba" />
            <path
               id="path854"
               d="m 725.1,547.5 c 0.8,-8.8 2,-18.4 3.7,-27.4 0.5,-2.7 1.3,-5.6 2.3,-8.5 -34.3,-14.7 -84.4,-35.9 -99.7,-42.4 -0.5,0.3 -1,0.6 -1.4,0.8 -0.5,0.3 -1.2,0.5 -1.9,0.8 2.4,5.5 8.2,16.2 19.1,22.6 15.3,8.9 26.1,10.1 26.1,10.1 l -5.8,11.1 c -0.1,-0.1 29.6,20.6 57.6,32.9 z"
               class="st12"
               inkscape:connector-curvature="0"
               style="fill:#baab93" />
            <path
               id="path856"
               d="m 704.3,461.6 c 0,0 -11.4,-12.8 -16.2,-16.4 -4.7,-3.6 -22.1,-11.7 -22.1,-11.7 0,0 -2.9,7.5 0,10.8 0,0 -11.6,-5 -12.4,-5 -0.8,0 -30.9,25.1 -30.9,25.1 0,0 17,21.2 30.1,27.3 13.1,6.1 24.1,5.7 24.1,5.7 h 9.3 z"
               class="st3"
               inkscape:connector-curvature="0"
               style="fill:#e5b691" />
            <path
               id="path858"
               d="m 671.4,506.4 31.8,-52.9 45.6,22.7 14.8,-21.8 c 0,0 11.2,2.3 35.3,-23.8 0,0 14.9,111 0,123.8 -15,12.7 -127.5,-48 -127.5,-48 z"
               class="st8"
               inkscape:connector-curvature="0"
               style="fill:#ff8b8b" />
            <path
               id="path860"
               d="m 601.4,497.6 -9.9,-30.5 c -1.7,-5.1 -6.4,-8.5 -11.8,-8.5 h -34.1 c -5.5,0 -10.4,3.6 -11.9,8.9 l -8.7,30.1 c -0.8,2.7 0.6,5.8 3.3,6.6 2.8,0.9 5.6,-0.6 6.6,-3.2 l 5.9,-16.1 -1.1,16.4 c -0.2,3 2.2,5.6 5.2,5.6 h 6.2 c 2.4,0 4.5,-1.7 5.1,-4 l 4.8,-20.2 0.1,19 c 0,2.9 2.3,5.2 5.2,5.2 h 6.4 c 2.9,0 5.3,-2.4 5.2,-5.3 l -0.2,-19.8 5.8,19.4 c 0.7,2.3 2.9,3.9 5.4,3.7 l 8.1,-0.6 c 3.2,-0.2 5.4,-3.5 4.4,-6.7 z"
               class="st3"
               inkscape:connector-curvature="0"
               style="fill:#e5b691" />
            <path
               id="path862"
               d="m 735.2,366.5 c -1,-7.9 -9.1,-12.8 -16.5,-10 l -5.8,2.1 c -3.7,1.3 -6.5,4.3 -7.6,8.1 l -3.6,12 c -1.1,3.5 -0.5,7.4 1.6,10.4 6.7,10.1 22.3,31.2 29.7,23.4 6,-6.4 4.3,-30.1 2.2,-46 z"
               class="st13"
               inkscape:connector-curvature="0"
               style="fill:#efe3d0" />
            <path
               id="path864"
               d="m 841.3,331.7 -13.1,4 c 3.5,3.7 12.3,12.1 19.4,14.2 -3.1,-9.9 -6.3,-18.2 -6.3,-18.2 z"
               class="st14"
               inkscape:connector-curvature="0"
               style="fill:#494032" />
            <circle
               id="circle866"
               r="5.5"
               cy="361.20001"
               cx="774.5"
               class="st14"
               style="fill:#494032" />
            <g
               id="g882">
              <g
                 id="g870">
                <path
                   id="path868"
                   d="m 651.1,388.8 c -3.7,1.6 -7.6,1.3 -10,-0.7 -0.6,-0.5 -0.7,-1.4 -0.2,-2 0.5,-0.6 1.4,-0.7 2,-0.2 1.5,1.3 4.4,1.4 7.1,0.3 2.8,-1.2 4.8,-3.5 4.8,-5.5 0,-0.8 0.6,-1.4 1.4,-1.4 0.8,0 1.4,0.6 1.4,1.4 -0.1,3.2 -2.7,6.5 -6.5,8.1 z"
                   class="st15"
                   inkscape:connector-curvature="0"
                   style="fill:#35393c" />
              </g>
              <g
                 id="g874">
                <path
                   id="path872"
                   d="m 696.7,369.6 c 3.7,-1.6 6.2,-4.6 6.5,-7.6 0.1,-0.8 -0.5,-1.5 -1.3,-1.5 -0.8,-0.1 -1.5,0.5 -1.5,1.3 -0.1,2 -2.1,4.2 -4.7,5.3 -2.8,1.2 -5.8,1 -7.3,-0.4 -0.6,-0.5 -1.5,-0.5 -2,0 -0.5,0.6 -0.5,1.4 0,2 2.3,2.1 6.4,2.5 10.3,0.9 z"
                   class="st15"
                   inkscape:connector-curvature="0"
                   style="fill:#35393c" />
              </g>
              <g
                 id="g880">
                <path
                   id="path876"
                   d="m 639.1,363.4 c -8.1,1.4 -11,9.3 -12.1,14.2 -0.2,0.9 0.9,1.6 1.3,0.9 1.9,-2.9 5.2,-7.2 9.2,-9.6 4.5,-2.7 13.1,-1.6 17.8,-0.6 0.8,0.2 1,-1.1 0.3,-1.6 -3.3,-2.1 -9.1,-4.6 -16.5,-3.3 z"
                   class="st9"
                   inkscape:connector-curvature="0"
                   style="fill:#8c3a3a" />
                <path
                   id="path878"
                   d="m 706.2,344.3 c -4.2,-2.7 -11.9,-6.1 -18.6,-1.3 -6.1,4.4 -8.4,10.3 -9.2,14.1 -0.2,0.9 0.9,1.6 1.3,0.9 2.6,-4.1 7.8,-11.1 12.9,-12.3 4.5,-1.1 9.8,-0.5 13.3,0.2 0.8,0.1 1,-1.2 0.3,-1.6 z"
                   class="st9"
                   inkscape:connector-curvature="0"
                   style="fill:#8c3a3a" />
              </g>
            </g>
            <path
               id="path884"
               d="m 689.2,385.9 c -0.5,-1.3 -2,-2.1 -3.8,-2.4 v 0 l -9.7,-12.8 c -1,-1.3 -2.7,-1.7 -4.2,-1.1 -1.7,0.8 -2.5,2.7 -1.8,4.5 l 3.9,9.7 c 0.6,1.4 0.1,3 -1,4 -2.3,2 -3.4,4.3 -2.6,6.2 1.2,2.9 6.5,3.4 11.8,1.2 5.2,-2.3 8.6,-6.5 7.4,-9.3 z"
               class="st16"
               inkscape:connector-curvature="0"
               style="opacity:0.5;fill:#fcf2eb" />
          </g>
          <path
             id="path888"
             d="m 1056.6,740.7 -145.7,-90 c -0.6,-0.4 -1.4,-0.3 -1.8,0.3 l -7.5,8.3 c -0.6,0.7 -0.4,1.7 0.3,2.2 l 148.4,91 c 0.7,0.4 1.7,0.2 2.1,-0.5 1.9,-3.3 3.8,-7.2 4.8,-9.1 0.4,-0.8 0.1,-1.7 -0.6,-2.2 z"
             class="st4"
             inkscape:connector-curvature="0"
             style="fill:#dbcfba" />
          <g
             id="g900">
            <path
               id="path890"
               d="m 984.5,736.2 c -1.7,-0.1 -3.1,1.1 -3.2,2.7 l -1.4,17.4 c 2,0 4,0 6,0 l 1.4,-16.9 c 0.1,-1.7 -1.2,-3.1 -2.8,-3.2 z"
               class="st9"
               inkscape:connector-curvature="0"
               style="fill:#8c3a3a" />
            <path
               id="path892"
               d="m 931.5,736.2 c -1.7,-0.1 -3.1,1.1 -3.2,2.7 l -1.4,17.4 c 2,0 4,0 6,0 l 1.4,-16.9 c 0.1,-1.7 -1.2,-3.1 -2.8,-3.2 z"
               class="st9"
               inkscape:connector-curvature="0"
               style="fill:#8c3a3a" />
            <path
               id="path894"
               d="m 944.7,736.2 c -1.7,-0.1 -3.1,1.1 -3.2,2.7 l -1.4,17.4 c 2,0 4,0 6,0 l 1.4,-16.9 c 0.1,-1.7 -1.1,-3.1 -2.8,-3.2 z"
               class="st9"
               inkscape:connector-curvature="0"
               style="fill:#8c3a3a" />
            <path
               id="path896"
               d="m 971.2,736.2 c -1.7,-0.1 -3.1,1.1 -3.2,2.7 l -1.4,17.4 c 2,0 4,0 6,0 l 1.4,-16.9 c 0.1,-1.7 -1.1,-3.1 -2.8,-3.2 z"
               class="st9"
               inkscape:connector-curvature="0"
               style="fill:#8c3a3a" />
            <path
               id="path898"
               d="m 958,736.2 c -1.7,-0.1 -3.1,1.1 -3.2,2.7 l -1.4,17.4 c 2,0 4,0 6,0 l 1.4,-16.9 c 0.1,-1.7 -1.2,-3.1 -2.8,-3.2 z"
               class="st9"
               inkscape:connector-curvature="0"
               style="fill:#8c3a3a" />
          </g>
        </g>
      </g>
      <g
         id="text" />
    </g>
    <path
       style="fill:#faf7f0;fill-opacity:1;fill-rule:nonzero;stroke:none;stroke-width:2.85714293;stroke-opacity:0.17763157"
       d="M -280.57143,399.42857 V -92 H 420.85714 1122.2857 V 399.42857 890.85714 H 420.85714 -280.57143 Z M 656.57142,682.50786 C 782.9826,671.782 844.70928,659.52214 847.4634,644.59383 849.31491,634.5578 811.80934,623.31954 749.65968,615.28766 l -34.05463,-4.40103 -32.52914,-20.30586 C 653.7032,572.24526 650.90837,569.78571 654.27337,565.23363 706.69485,494.31926 727.05102,446.58006 734.22854,377.72297 744.4806,279.37063 709.27491,181.17171 638,109.31345 585.89171,56.778669 521.42817,24.278543 448.05437,13.549871 415.85357,8.8414914 353.46277,11.611866 323.45942,19.082329 203.94734,48.839383 109.1846,140.60865 78.12551,256.66631 c -21.898229,81.82658 -13.709943,162.57538 24.18351,238.48566 9.41575,18.86214 17.11955,36.58346 17.11955,39.38069 0,6.27148 -12.149,30.65808 -23.578717,47.3294 -6.967914,10.16337 -8.2534,14.45308 -7.040657,23.49488 1.456285,10.85735 1.2912,11.09449 -8.948486,12.85443 -32.6778,5.61649 -54.687371,10.85303 -65.432143,15.56772 -45.928474,20.15294 45.975743,41.11965 225.000003,51.33071 55.68094,3.17589 372.32497,1.20083 417.14285,-2.60194 z"
       id="path871"
       inkscape:connector-curvature="0"
       transform="matrix(0.26458334,0,0,0.26458334,0,111.79162)" />
  </g>
  <style
     id="style815"
     type="text/css">
	.st0{fill:#F9F7EF;}
	.st1{fill:#FFD7C7;}
	.st2{opacity:0.4;fill:#99AFBF;}
	.st3{fill:#E5B691;}
	.st4{fill:#DBCFBA;}
	.st5{fill:#B76767;}
	.st6{fill:#3E5862;}
	.st7{fill:#267587;}
	.st8{fill:#FF8B8B;}
	.st9{fill:#8C3A3A;}
	.st10{fill:#EAA94E;}
	.st11{fill:#BCAF9B;}
	.st12{fill:#BAAB93;}
	.st13{fill:#EFE3D0;}
	.st14{fill:#494032;}
	.st15{fill:#35393C;}
	.st16{opacity:0.5;fill:#FCF2EB;}
</style>
</svg>
